<svg width="506" height="181" viewBox="0 0 506 181" fill="none" xmlns="http://www.w3.org/2000/svg">
<path d="M163 141.25H134.5V178H95V141.25H0.75V114L83.25 2.99999H125.75L49.25 108.25H96.25V75.5H134.5V108.25H163V141.25ZM250.113 181C235.613 181 222.697 177.417 211.363 170.25C200.03 163.083 191.113 152.75 184.613 139.25C178.28 125.583 175.113 109.333 175.113 90.5C175.113 71.6667 178.28 55.5 184.613 42C191.113 28.3333 200.03 17.9167 211.363 10.75C222.697 3.58333 235.613 -3.09944e-06 250.113 -3.09944e-06C264.613 -3.09944e-06 277.53 3.58333 288.863 10.75C300.197 17.9167 309.03 28.3333 315.363 42C321.863 55.5 325.113 71.6667 325.113 90.5C325.113 109.333 321.863 125.583 315.363 139.25C309.03 152.75 300.197 163.083 288.863 170.25C277.53 177.417 264.613 181 250.113 181ZM250.113 146.75C260.78 146.75 269.113 142.167 275.113 133C281.28 123.833 284.363 109.667 284.363 90.5C284.363 71.3333 281.28 57.1667 275.113 48C269.113 38.8333 260.78 34.25 250.113 34.25C239.613 34.25 231.28 38.8333 225.113 48C219.113 57.1667 216.113 71.3333 216.113 90.5C216.113 109.667 219.113 123.833 225.113 133C231.28 142.167 239.613 146.75 250.113 146.75ZM505.041 141.25H476.541V178H437.041V141.25H342.791V114L425.291 2.99999H467.791L391.291 108.25H438.291V75.5H476.541V108.25H505.041V141.25Z" fill="#564EFF"/>
</svg>
