<svg width="73" height="69" viewBox="0 0 73 69" fill="none" xmlns="http://www.w3.org/2000/svg">
<path d="M33.3094 1.68478C33.3094 1.68478 34.3347 3.92569 32.8782 6.39549C32.1503 7.62987 13.7991 11.6347 6.63574 21.8285C2.25001 28.8743 -4.47476 49.262 17.0153 62.7538C26.6639 67.8507 30.7572 67.7008 30.7572 67.7008C30.7572 67.7008 24.3248 63.0536 28.4182 59.9055C32.5115 56.7574 38.5053 55.2583 40.1134 50.911C42.0139 52.4101 45.0839 55.5582 48.0077 55.2583C47.7153 53.3095 46.9844 52.56 49.3234 52.2602C51.6625 51.9603 52.832 51.9603 52.832 51.9603C52.832 51.9603 50.6392 50.1614 48.1539 50.0115C45.6687 49.8616 40.9906 44.9146 41.1368 42.8159C44.2068 41.0169 48.1539 38.0188 50.493 38.9182C52.832 39.8177 55.1711 41.3168 55.6096 42.666C55.6096 43.5654 55.1711 45.0645 57.0715 43.8652C58.972 42.666 58.5335 41.9164 59.2644 40.2674C59.9954 38.6184 60.1416 38.3186 58.5335 36.9694C56.9254 35.6202 53.1244 32.4721 50.0544 33.3716C46.9844 34.271 40.552 36.8195 37.3358 33.6714C38.6515 30.6732 40.6982 25.8761 39.6748 22.5781C41.5753 21.079 43.7682 19.43 44.0606 16.7316C46.2534 16.4318 50.9315 15.0826 50.0544 12.6841C49.1772 10.2855 42.9505 -0.383469 33.4481 1.71526" fill="white"/>
<path d="M63.6507 26.1758C65.2588 21.8285 67.8902 14.4829 65.405 14.1831C62.9197 13.8832 60.1421 20.7791 59.4112 22.578C58.6802 24.3769 55.7564 33.3715 57.3645 34.5708C58.9726 35.77 63.6507 26.1758 63.6507 26.1758Z" fill="white"/>
<path d="M50.0549 14.4828C50.5125 13.7454 50.9059 14.3861 48.9323 14.536C46.9587 14.6859 44.6019 15.3132 44.1973 16.1922C43.4384 17.8415 43.184 21.9033 40.3332 22.8027C40.1871 23.8521 40.3332 26.2507 44.3535 26.7004C48.3737 27.1501 48.5199 24.4517 50.859 24.5267C53.198 24.6016 52.9787 23.7022 52.1747 23.0276C51.3706 22.353 48.593 17.7808 48.593 16.2817C48.593 14.7826 49.5433 15.3073 50.0549 14.4828Z" fill="#DA687D"/>
<path d="M14.1645 59.6805C14.1645 59.6805 12.9219 56.3075 16.5767 54.5086C20.2314 52.7097 23.5207 54.1338 24.1786 55.4081C24.8364 56.6823 23.0822 61.7792 16.796 61.8542C15.2609 60.58 14.1645 59.6805 14.1645 59.6805Z" fill="#DA687D"/>
<g opacity="0.699997">
<g opacity="0.699997">
<path opacity="0.699997" fill-rule="evenodd" clip-rule="evenodd" d="M64.1313 16.6062C64.1931 16.8414 64.1749 17.0857 64.1686 17.3314C64.1624 17.5734 64.1404 17.8279 64.0803 18.0754C64.0958 18.132 64.0683 18.1975 64.0777 18.2555C64.0177 18.3327 64.0493 18.3909 64.0361 18.4585C64.1328 18.5595 64.2586 18.6553 64.2046 18.7826C64.1667 18.8719 64.0768 18.8884 63.9905 18.9317C63.9337 19.142 63.8869 19.3963 63.8402 19.6287C63.8261 19.7 63.8338 19.7862 63.8129 19.8513C63.7641 20.0027 63.7119 20.1478 63.671 20.3145C63.6363 20.4562 63.6759 20.7176 63.5156 20.7359C63.4537 20.8931 63.4186 21.0119 63.3452 21.1601C63.3034 21.1846 63.2792 21.1442 63.2441 21.1588C63.1995 21.2109 63.2011 21.2822 63.1597 21.3258C63.1273 21.3601 63.0862 21.3502 63.0625 21.3835C63.0094 21.4585 63.0236 21.5694 62.9861 21.6686C62.9176 21.7286 62.86 21.8043 62.8184 21.8902C62.7324 22.0669 62.7163 22.2921 62.5858 22.4288C62.5448 22.4717 62.4745 22.4835 62.438 22.5258C62.4032 22.5661 62.3715 22.6255 62.3373 22.6727C62.2878 22.7405 62.2395 22.8294 62.1952 22.91C62.0484 23.1779 61.8468 23.4662 61.7126 23.7591C61.6873 23.8144 61.6835 23.8798 61.6594 23.9338C61.6037 24.0577 61.5215 24.1705 61.4756 24.2835C61.4002 24.4692 61.2841 24.784 61.1046 24.9461C61.0828 24.9657 61.0354 24.9842 61.016 25.0082C60.9898 25.0404 60.9961 25.0933 60.9692 25.1293C60.9566 25.1462 60.9107 25.1539 60.8907 25.1746C60.8603 25.2062 60.846 25.2467 60.8207 25.2703C60.7584 25.3285 60.6723 25.3535 60.6188 25.4141C60.5783 25.46 60.5607 25.5255 60.5176 25.5831C60.4711 25.645 60.4064 25.7006 60.3583 25.7633C60.213 25.9527 60.1565 26.183 59.9633 26.2723C59.9058 26.299 59.8346 26.2903 59.7745 26.3085C59.7199 26.2569 59.7631 26.1858 59.7507 26.134C59.7427 26.1007 59.709 26.0767 59.7001 26.0466C59.6792 25.9755 59.6494 25.8463 59.6504 25.765C59.6514 25.6844 59.695 25.6195 59.7052 25.5234C59.7142 25.4411 59.6852 25.3366 59.6794 25.2452C59.6763 25.1993 59.6887 25.1516 59.688 25.1019C59.6868 25.0219 59.6783 24.9818 59.6892 24.8857C59.7017 24.7743 59.6783 24.6665 59.6642 24.5631C59.7142 24.3075 59.7418 24.1121 59.8235 23.8257C59.8612 23.6936 59.9289 23.4708 59.996 23.3241C60.1255 23.04 60.2358 22.7298 60.3761 22.4329C60.4227 22.3345 60.4967 22.2536 60.5426 22.1552C60.5692 22.0981 60.5735 22.0311 60.6004 21.9731C60.8368 21.4637 61.1671 21.0387 61.4139 20.5143C61.6184 20.0857 61.8349 19.7021 62.1076 19.2333C62.2307 19.0212 62.3368 18.7961 62.4634 18.6208C62.5599 18.4872 62.702 18.2591 62.8046 18.0338C62.8453 17.9444 62.844 17.8729 62.9516 17.8686C63.0624 17.7265 63.1454 17.5661 63.2613 17.4452C63.2906 17.4149 63.3359 17.3998 63.3685 17.3706C63.4065 17.3364 63.4245 17.2851 63.4618 17.2539C63.5408 17.1878 63.6711 17.1292 63.7593 17.0052C63.7826 16.9723 63.7927 16.9376 63.8186 16.903C63.8791 16.8222 63.9927 16.6233 64.0832 16.6012C64.0961 16.5934 64.1129 16.597 64.1313 16.6062Z" fill="#DA687D"/>
</g>
</g>
<g opacity="0.699997">
<g opacity="0.699997">
<path opacity="0.699997" fill-rule="evenodd" clip-rule="evenodd" d="M63.1988 19.6628C63.2994 19.953 63.3106 20.2783 63.3355 20.6021C63.3327 20.9229 63.3109 21.2885 63.2309 21.6429C63.2453 21.7167 63.2083 21.809 63.215 21.8862C63.1391 21.9989 63.1719 22.0736 63.151 22.1674C63.2559 22.2926 63.3945 22.4086 63.3198 22.5926C63.2657 22.7194 63.1564 22.748 63.0501 22.8143C62.9565 23.0999 62.8709 23.4534 62.7802 23.7595C62.7529 23.8547 62.7492 23.9686 62.7149 24.0559C62.6349 24.26 62.5525 24.454 62.4814 24.6706C62.4206 24.8562 62.4294 25.195 62.2399 25.2236C62.1507 25.4268 62.0969 25.5794 61.9952 25.771C61.944 25.8035 61.9203 25.7531 61.8781 25.7729C61.8208 25.8413 61.8135 25.9323 61.7619 25.9895C61.7225 26.0342 61.6763 26.0234 61.6471 26.0666C61.5815 26.1642 61.5907 26.3034 61.5414 26.4301C61.5002 26.47 61.4616 26.5147 61.4268 26.5632C61.4094 26.5875 61.3927 26.6127 61.3775 26.6389L61.3552 26.6788L61.3446 26.6992L61.3397 26.7095L61.3392 26.7101V26.7103C61.3537 26.6746 61.3433 26.7004 61.3465 26.6925L61.3464 26.6928L61.3462 26.6929L61.3457 26.6944L61.3445 26.6973L61.3421 26.7028C61.2403 26.9479 61.2177 27.247 61.0651 27.4456C61.0161 27.5087 60.9376 27.5321 60.8982 27.5912C60.8603 27.6474 60.8264 27.7279 60.7891 27.7931C60.7356 27.8868 60.6836 28.0078 60.6362 28.1175C60.4776 28.4857 60.2603 28.9081 60.114 29.3213C60.0865 29.3997 60.084 29.4871 60.0577 29.5637C59.996 29.7395 59.9083 29.9044 59.8539 30.0647C59.7624 30.3275 59.6384 30.7733 59.4139 31.0206C59.3873 31.0506 59.331 31.0829 59.3069 31.1181C59.2747 31.1653 59.279 31.2359 59.2455 31.2885C59.23 31.3131 59.176 31.3298 59.1516 31.3605C59.1145 31.4074 59.0956 31.4639 59.0648 31.4993C58.9913 31.5864 58.885 31.629 58.8142 31.7149C58.7609 31.7801 58.7321 31.8691 58.6742 31.9499C58.6119 32.0366 58.5293 32.1154 58.4654 32.2022C58.3704 32.3413 58.2825 32.47 58.1982 32.5932C58.1116 32.7151 58.0205 32.8202 57.8989 32.8756C57.8266 32.9085 57.7466 32.8936 57.6739 32.914C57.6223 32.8431 57.6865 32.7534 57.6828 32.6855C57.6802 32.6424 57.6463 32.61 57.6419 32.5707C57.6317 32.4785 57.6213 32.3141 57.6368 32.2129C57.6513 32.1115 57.7169 32.0343 57.7409 31.9123C57.7592 31.8062 57.7359 31.6738 57.7372 31.5587C57.7378 31.5007 57.7562 31.4401 57.7596 31.3779C57.7652 31.2777 57.7584 31.2281 57.7786 31.1088C57.8024 30.9706 57.7736 30.8309 57.7609 30.7027C57.8232 30.3742 57.8612 30.1321 57.9458 29.749C57.9858 29.5727 58.0608 29.2836 58.1308 29.0762C58.1998 28.879 58.2629 28.6743 58.3277 28.4671C58.3928 28.2572 58.4601 28.0412 58.5359 27.8301C58.5866 27.6894 58.6669 27.5702 58.7221 27.4212C58.7533 27.3365 58.7585 27.2425 58.7901 27.1563C58.8595 26.9689 58.9348 26.7794 59.0154 26.6082C59.0962 26.4399 59.1806 26.2742 59.2655 26.1081L59.4026 25.8372C59.4503 25.7503 59.4981 25.6632 59.5461 25.5756C59.6409 25.3999 59.7336 25.2208 59.8218 25.0346C59.9719 24.7399 60.1248 24.4608 60.2878 24.1764C60.451 23.8999 60.6276 23.6132 60.8183 23.3044C60.9876 23.0266 61.147 22.731 61.3091 22.5016C61.43 22.3266 61.6268 22.0274 61.7538 21.7332C61.8038 21.6162 61.8048 21.5263 61.9288 21.511C62.0614 21.32 62.1699 21.1067 62.2873 20.9454C62.3186 20.904 62.3696 20.8787 62.4054 20.8371C62.4472 20.7887 62.465 20.7229 62.5067 20.6775C62.5918 20.5796 62.7511 20.4861 62.8298 20.2924C62.8519 20.2426 62.8587 20.1945 62.8836 20.1416C62.9416 20.0183 63.0441 19.725 63.1438 19.6701C63.1573 19.6562 63.1767 19.6562 63.1988 19.6628Z" fill="#DA687D"/>
</g>
</g>
<path d="M60.0178 23.0277C60.0178 23.0277 58.8483 27.625 59.3356 31.4226C59.4331 30.2233 60.0178 23.0277 60.0178 23.0277Z" fill="white"/>
<path d="M61.4077 19.921C61.3185 19.5991 60.7357 28.8373 60.906 29.1608C61.0765 29.4845 61.9508 21.879 61.4077 19.921Z" fill="white"/>
<path d="M33.4946 2.24993C33.4946 2.24993 34.1769 6.24049 27.8419 8.33923C21.507 10.438 12.7754 12.2342 6.343 20.1295C-0.0893987 28.0246 -1.25893 41.1167 3.1268 49.7116C7.51252 58.3064 18.2331 69 37.5303 69C56.8275 69 72.1561 53.7833 72.1561 43.2897C72.1561 37.7929 69.2108 39.0185 68.1922 44.1754C67.2728 48.8299 58.7768 66.2016 37.433 66.2016C16.0891 66.2016 5.17347 52.9096 3.80907 41.5165C2.44453 30.1234 5.54859 20.3089 16.7566 14.4125C27.9646 8.51599 35.0773 10.865 33.5179 2.27026" fill="#2D2B2C"/>
<path d="M28.1748 33.0216C28.1748 33.0216 26.9077 39.0181 20.7677 41.9162C14.6277 44.8145 11.9963 46.4134 11.1191 51.4105C13.4582 47.413 20.2805 46.6134 24.0814 42.7158C27.8824 38.8181 28.1748 33.0216 28.1748 33.0216Z" fill="#2D2B2C"/>
<path d="M29.832 19.1301C29.832 19.1301 35.0949 26.1259 41.3324 22.7279C47.5698 19.3299 44.3537 11.4348 44.2562 10.935C44.1587 10.4353 44.9384 19.7297 40.2603 21.3288C35.5822 22.9277 29.832 19.1301 29.832 19.1301Z" fill="#2D2B2C"/>
<path d="M16.0879 60.9047C16.0879 60.9047 19.4014 61.1047 21.838 58.3065C24.2746 55.5079 22.9102 51.1108 26.906 49.5116C30.9018 47.9126 33.6308 48.9119 33.6308 48.9119C33.6308 48.9119 26.5161 49.9115 25.9314 54.109C25.3466 58.3065 24.3721 60.2052 22.8127 61.5043C21.2532 62.8037 19.2066 63.0034 19.2066 63.0034L16.0879 60.9047Z" fill="#2D2B2C"/>
<path d="M31.1211 39.1428C31.1211 39.1428 37.0452 38.126 39.7463 31.9472C41.9636 26.8753 40.4773 22.5029 40.4773 22.5029L37.4804 22.9526C37.4804 22.9526 38.723 26.6254 37.7728 29.9234C36.8225 33.2214 34.6297 37.0441 31.1211 39.1428Z" fill="#2D2B2C"/>
<path d="M63.0081 25.1024C60.894 30.5186 57.7784 34.4069 57.4141 34.198C56.7571 33.8212 57.3618 29.0956 59.476 23.6794C61.5899 18.2632 64.2172 14.1399 65.1926 14.5328C66.168 14.9258 65.122 19.6861 63.0081 25.1024ZM66.078 14.233C63.6743 12.8937 60.7209 17.8982 58.2895 23.7274C55.8579 29.5566 55.5788 34.2554 57.4476 35.0959C59.9463 36.2196 62.2904 31.7552 64.7219 25.926C67.1533 20.0967 68.2305 15.4323 66.078 14.233Z" fill="#2D2B2C"/>
<path d="M22.4238 43.6153C22.4238 43.6153 23.9341 48.2681 31.4877 47.313C38.6023 46.4135 41.6611 43.6036 46.0092 40.8168C49.1281 38.8182 48.933 39.7177 49.3229 39.8175C49.7128 39.9174 51.4671 41.0168 53.3188 40.8168C53.4163 41.8164 52.4418 41.0168 52.0519 41.9162C51.857 42.5159 53.5313 45.3378 55.9502 44.9144C59.9462 44.215 58.8253 42.5159 59.6051 40.6171C60.3848 38.7184 60.9208 37.7188 57.0224 35.0204C54.001 32.2222 52.3443 32.9218 50.8823 32.9218C49.4204 32.9218 45.6195 35.0204 42.988 34.5208C40.3566 34.0211 38.6997 33.0217 38.6997 33.0217L36.9455 35.0204C36.9455 35.0204 40.1616 37.5188 43.8652 36.6193C47.5686 35.7199 50.2977 32.8218 53.5139 34.3209C56.7301 35.82 57.3561 36.8246 58.3381 37.5689C59.4589 38.4186 59.5563 39.3177 58.7767 40.1173C57.9969 40.917 58.7768 41.5166 58.2895 42.416C57.8021 43.3155 55.3657 43.7152 55.3657 43.7152C55.3657 43.7152 58.0371 40.1957 54.781 39.9177C52.4419 39.7177 50.98 36.5195 47.6663 38.2186C42.9078 40.6587 36.1658 44.8146 31.4877 45.3141C26.9275 45.801 25.2501 44.3148 24.0806 41.5166C22.7162 42.7159 22.4238 43.6153 22.4238 43.6153Z" fill="#2D2B2C"/>
<path d="M39.1863 44.6147C39.1863 44.6147 42.5 46.4136 41.5254 50.3113C40.5507 54.2089 36.165 56.9073 33.3387 58.2067C30.5124 59.5058 28.4058 61.2239 30.5124 62.304C32.2667 63.2035 33.2413 60.9048 35.7753 60.5051C38.3092 60.1054 40.5509 61.1047 40.7457 62.6038C39.6736 62.0042 38.8939 62.0042 38.8939 62.0042C38.8939 62.0042 39.7711 62.6038 39.8686 63.6034C39.966 64.6027 39.7711 64.1029 39.1863 64.1029C37.7244 64.1029 37.5295 62.8038 36.2625 63.0038C33.0463 63.3036 32.8514 64.7029 31.0972 64.9025C29.3429 65.1025 26.419 64.1029 26.8088 61.8045C27.1987 59.5058 30.22 57.9069 33.0463 56.7076C35.8726 55.5083 40.161 51.7105 39.5762 48.3127C38.9915 44.9145 36.4574 45.6143 36.4574 45.6143L39.1863 44.6147Z" fill="#2D2B2C"/>
<path d="M47.4953 16.3193C47.4953 16.3193 48.8841 17.0314 49.7613 20.6292C50.346 21.9284 51.1257 22.9778 51.808 23.2776C52.4902 23.5774 51.5156 23.8773 51.0283 23.7773C50.5409 23.6773 49.5176 23.2276 48.8355 23.8272C48.1532 24.4268 46.4964 26.0259 44.1574 25.6261C41.8183 25.2265 39.8203 23.7023 39.8203 23.7023C39.8203 23.7023 40.6975 27.6749 45.9116 27.425C49.5256 27.2519 48.7379 25.3263 51.1745 24.9266C53.6109 24.5268 53.3517 23.2643 52.8313 22.2283C52.0028 20.5793 49.4202 20.1795 49.1278 15.3573C48.8355 14.8577 47.0081 15.4198 47.4953 16.3193Z" fill="#2D2B2C"/>
<path d="M55.827 41.3962C56.0472 41.6176 54.0983 46.1137 54.0983 46.1137C54.0983 46.1137 53.7084 47.2131 52.6636 46.8258C51.5948 46.4293 51.8723 45.6343 51.8723 45.6343L54.3613 41.0115C54.3613 41.0115 55.7286 41.2973 55.827 41.3962Z" fill="#2D2B2C"/>
<path d="M58.5677 34.9955C58.4702 35.2953 58.0804 36.4946 58.0804 36.4946L56.4883 35.2452L56.9109 34.296L58.5677 34.9955Z" fill="#2D2B2C"/>
<path d="M40.7451 43.7151C40.4527 44.8145 44.1561 51.2109 46.6902 50.8109C49.2241 50.4113 49.6139 51.2109 48.8342 51.7104C48.0546 52.2102 46.6902 52.4101 46.8851 53.1096C47.0799 53.8091 47.616 54.5089 46.349 54.3089C45.0821 54.1089 42.4994 52.7097 40.9399 50.0113C40.4527 51.6105 40.2578 52.11 40.2578 52.11C40.2578 52.11 45.2283 57.4069 50.2961 55.2084C49.419 54.5086 46.9826 54.7086 49.0293 53.5093C51.0759 52.31 52.6352 51.9103 53.6099 53.8091C54.0971 53.7093 54.0971 49.3118 47.6647 49.6116C45.4232 49.3118 42.4018 44.8145 42.4018 42.5158C41.8171 43.1155 41.0374 42.6157 40.7451 43.7151Z" fill="#2D2B2C"/>
<path d="M60.5694 21.6035C60.5694 21.6035 59.2903 25.5441 59.8233 28.7992C59.9299 27.7713 60.5694 21.6035 60.5694 21.6035Z" fill="#2D2B2C"/>
<path d="M61.8784 19.2727C61.8135 19.0238 61.2834 26.1327 61.4101 26.3837C61.537 26.6345 62.274 20.7862 61.8784 19.2727Z" fill="#2D2B2C"/>
<path d="M44.8404 15.3323C44.8404 15.3323 50.3469 14.8327 49.3723 12.584C46.4331 5.80229 40.8445 1.84048 30.5137 2.24029C36.3613 -0.158265 41.3318 0.141516 46.1074 4.33902C48.4952 6.43773 49.6004 8.99231 50.4565 10.9475C51.822 14.0657 51.4198 14.3575 49.9084 15.2323C48.071 16.2959 44.91 15.6176 44.8404 15.3323Z" fill="#2D2B2C"/>
<path d="M45.4026 16.1947C45.4026 16.1947 46.9178 17.2648 48.1075 16.3935C48.6544 15.8165 49.0187 15.5015 47.4684 15.5672L45.5819 15.4879C44.2748 15.2144 44.3006 15.6285 45.4026 16.1947Z" fill="#2D2B2C"/>
</svg>
