<svg width="77" height="77" viewBox="0 0 77 77" fill="none" xmlns="http://www.w3.org/2000/svg">
<path d="M57.1442 72.1922C56.8579 72.3438 56.882 72.3919 57.1563 72.2524C57.2408 72.2178 57.3183 72.1681 57.3849 72.1056C57.3849 72.0551 57.3849 72.0551 57.1442 72.1922ZM57.7217 71.8794C57.5846 71.9925 57.5846 71.9925 57.7482 71.9179C57.8087 71.8896 57.864 71.8513 57.9118 71.8048C57.9118 71.7398 57.8733 71.7543 57.7217 71.8794ZM58.0971 71.6532C57.9599 71.7663 57.9599 71.7663 58.1236 71.6917C58.1843 71.6628 58.2396 71.6237 58.2872 71.5762C58.2872 71.516 58.2487 71.5281 58.0971 71.6532ZM58.4773 71.4294C58.3401 71.5425 58.3401 71.5425 58.4989 71.4655C58.588 71.4174 58.6625 71.3669 58.6625 71.3524C58.6625 71.2923 58.624 71.3043 58.4773 71.4294ZM58.9898 71.0901C58.7275 71.2658 58.6361 71.3789 58.8767 71.2538C59.0379 71.1551 59.3122 70.9385 59.2641 70.9385C59.1606 70.977 59.074 71.042 58.9874 71.0901H58.9898ZM35.9795 0.0176864C35.8039 0.0297179 35.2769 0.0778438 34.8149 0.116345C23.8717 1.10774 13.6334 6.99836 7.14393 16.0725C3.55768 21.0493 1.22657 26.8188 0.348895 32.8901C0.0384988 35.0077 0 35.6333 0 38.504C0 41.3723 0.0384988 41.9883 0.348895 44.1059C2.44467 58.5702 12.7335 70.7123 26.6797 75.2121C29.1893 76.0134 31.8193 76.5669 34.8149 76.9062C35.9795 77.0313 41.0157 77.0313 42.1802 76.9062C47.3583 76.3286 51.7304 75.0509 56.0567 72.8443C56.7208 72.5074 56.8459 72.4184 56.7569 72.3438C54.6464 69.5539 52.5538 66.7505 50.4791 63.9338L44.3266 55.6248L36.6196 44.207C34.056 40.384 31.4661 36.5787 28.85 32.7915C28.8236 32.7915 28.7899 37.8664 28.7754 44.0554C28.749 54.8957 28.749 55.3361 28.6118 55.5863C28.4803 55.8887 28.2446 56.1337 27.9477 56.277C27.7095 56.39 27.4954 56.4141 26.3572 56.4141H25.0555L24.7162 56.2024C24.5037 56.066 24.3311 55.8759 24.2157 55.6513L24.0521 55.312L24.0642 40.2221L24.0906 25.1322L24.3288 24.8314C24.481 24.6465 24.6682 24.4936 24.8798 24.3815C25.1951 24.2299 25.3202 24.2058 26.6219 24.2058C28.1498 24.2058 28.4025 24.266 28.8043 24.7063C31.9264 29.3502 35.0216 34.012 38.0897 38.6917C43.0922 46.2764 49.9209 56.6259 53.2775 61.7032L59.382 70.9409L59.6828 70.7412C62.6165 68.7916 65.275 66.4566 67.5871 63.799C72.4368 58.2479 75.5838 51.4165 76.6511 44.1227C76.9615 42.0052 77 41.3772 77 38.5088C77 35.6381 76.9615 35.0245 76.6511 32.907C74.5553 18.4427 64.2665 6.30053 50.3203 1.79835C47.7139 0.972797 45.0312 0.410918 42.3126 0.121157C41.5835 0.046562 36.6075 -0.0424711 35.9819 0.022499L35.9795 0.0176864ZM51.7328 23.3034C51.9118 23.3914 52.0714 23.5141 52.2024 23.6645C52.3334 23.8149 52.433 23.9899 52.4955 24.1793C52.5605 24.3815 52.5725 28.566 52.5605 37.9915L52.534 51.5245L50.1543 47.8669L47.7602 44.207V34.382C47.7602 28.0126 47.7866 24.4416 47.8203 24.266C47.9381 23.8632 48.2083 23.5222 48.5735 23.3155C48.8718 23.1639 48.9873 23.1518 50.1784 23.1518C51.2924 23.1518 51.4801 23.1639 51.7304 23.3034H51.7328Z" fill="black"/>
</svg>
