<svg width="88" height="87" viewBox="0 0 88 87" fill="none" xmlns="http://www.w3.org/2000/svg">
<path d="M43.9897 50.362C47.7821 50.362 50.8564 47.3678 50.8564 43.6742C50.8564 39.9807 47.7821 36.9865 43.9897 36.9865C40.1974 36.9865 37.123 39.9807 37.123 43.6742C37.123 47.3678 40.1974 50.362 43.9897 50.362Z" fill="#00D8FF"/>
<path d="M43.9906 59.008C35.7372 59.2025 27.5045 58.1189 19.6001 55.7979C15.9487 54.6705 12.5431 52.8947 9.5555 50.56C8.41543 49.7624 7.46602 48.7341 6.7724 47.5455C6.07879 46.357 5.65739 45.0363 5.53711 43.6742C5.53711 39.2523 10.5251 34.9186 18.8805 32.083C26.9962 29.5704 35.4757 28.3526 43.9906 28.4769C52.3918 28.3626 60.7578 29.5583 68.7711 32.0188C72.2876 33.1106 75.5777 34.8007 78.4888 37.0105C79.6094 37.7709 80.5445 38.762 81.2281 39.9136C81.9116 41.0651 82.3267 42.349 82.444 43.6742C82.444 48.2701 76.8683 52.9275 67.8866 55.822C60.1353 58.0674 52.0763 59.1419 43.9906 59.008ZM43.9906 31.6763C35.8442 31.5703 27.7325 32.7279 19.9599 35.1058C12.2692 37.7194 8.82213 41.2934 8.82213 43.6662C8.82213 46.1487 12.5274 50.0517 20.663 52.7616C28.2248 54.9709 36.0983 55.9993 43.9906 55.8086C51.7263 55.9433 59.4377 54.9239 66.8566 52.7857C75.3027 50.0597 79.148 46.1514 79.148 43.6742C79.0094 42.8242 78.6913 42.0113 78.2139 41.287C77.7364 40.5627 77.1098 39.9428 76.3739 39.4663C73.7693 37.5058 70.8302 36.008 67.6916 35.0416C60.0257 32.6976 52.0245 31.5615 43.9906 31.6763Z" fill="#00D8FF"/>
<path d="M28.3888 77.0303C27.1074 77.0589 25.8412 76.7562 24.7192 76.1529C20.786 73.9432 19.4236 67.5711 21.0744 59.1043C22.8944 51.0016 26.0481 43.239 30.4131 36.117C34.5076 28.9721 39.7495 22.5111 45.94 16.9792C48.6679 14.5574 51.8148 12.6256 55.2348 11.2732C56.4718 10.7086 57.8211 10.4159 59.1872 10.4159C60.5533 10.4159 61.9027 10.7086 63.1397 11.2732C67.2295 13.5684 68.5836 20.5987 66.6747 29.6218C64.7984 37.2849 61.7267 44.6224 57.5667 51.3786C53.6162 58.4392 48.5394 64.8438 42.5259 70.3532C39.699 72.8699 36.4182 74.8553 32.8494 76.209C31.4206 76.7255 29.9125 77.0032 28.3888 77.0303ZM33.2586 37.706C29.0949 44.5258 26.0724 51.9476 24.3045 59.6928C22.7856 67.4908 24.244 72.1803 26.3645 73.3734C28.5618 74.612 33.8959 73.4376 40.3725 67.9269C46.1131 62.6487 50.9588 56.518 54.7294 49.7628C58.7146 43.3038 61.6612 36.2886 63.4666 28.9611C65.2629 20.4676 63.711 15.2671 61.5082 14.0312C60.6826 13.7231 59.8003 13.5852 58.9171 13.6262C58.034 13.6672 57.1692 13.8862 56.3774 14.2693C53.3332 15.4928 50.5345 17.2297 48.1099 19.4002C42.1954 24.699 37.1883 30.8843 33.2779 37.7221L33.2586 37.706Z" fill="#00D8FF"/>
<path d="M59.5833 77.0651C55.8615 77.0651 51.1345 74.8715 46.2125 70.7491C39.9135 65.1669 34.583 58.6292 30.4273 51.3893C26.1171 44.3654 22.9884 36.7151 21.16 28.7284C20.3671 25.2146 20.2202 21.5917 20.7261 18.0279C20.843 16.7059 21.2563 15.4249 21.9369 14.2754C22.6174 13.1259 23.5486 12.1358 24.6648 11.3749C28.7491 9.07161 35.679 11.4391 42.7517 17.5544C48.6312 22.964 53.6241 29.2198 57.5562 36.1037C61.8638 42.9636 65.0253 50.4464 66.9224 58.2724C67.7495 61.9151 67.877 65.6755 67.2987 69.3634C67.1611 70.7235 66.7231 72.0385 66.0148 73.2182C65.3065 74.398 64.3447 75.4146 63.1952 76.1984C62.0914 76.7942 60.8449 77.0933 59.5833 77.0651ZM33.2701 49.7789C37.2567 56.6979 42.3487 62.9548 48.3549 68.3148C54.5321 73.4911 59.4322 74.604 61.5389 73.3975C63.7362 72.1536 65.3568 67.0762 63.6868 58.8609C61.8572 51.3891 58.8249 44.2465 54.7024 37.6981C50.95 31.1096 46.1843 25.1193 40.5708 19.9353C33.9129 14.1784 28.5129 12.8917 26.3128 14.1329C25.6271 14.6757 25.0643 15.351 24.6601 16.1162C24.2559 16.8815 24.019 17.7201 23.9644 18.579C23.5277 21.7573 23.6699 24.9856 24.3846 28.1158C26.1433 35.7536 29.1439 43.0687 33.2729 49.7842L33.2701 49.7789Z" fill="#00D8FF"/>
</svg>
