<svg width="85" height="77" viewBox="0 0 85 77" fill="none" xmlns="http://www.w3.org/2000/svg">
<path d="M66.6248 23.2556C67.9941 16.4702 68.288 11.2659 67.4028 7.48683C66.8764 5.23925 65.914 3.4057 64.4505 2.08283C62.9055 0.686228 60.9521 0.000911416 58.7572 0.000911416C55.1364 0.000911416 51.33 1.68826 47.2621 4.89377C45.6029 6.20124 43.8809 7.77719 42.0925 9.6225C41.9502 9.43523 41.7893 9.25859 41.61 9.09534C36.5539 4.4909 32.2971 1.6301 28.6562 0.527065C26.4914 -0.1288 24.4588 -0.191285 22.6079 0.445255C20.6541 1.11717 19.0974 2.5061 17.9991 4.45156C16.1864 7.66226 15.7084 11.8811 16.3842 17.0904C16.6596 19.2137 17.1306 21.5267 17.7959 24.0327C17.5449 24.0637 17.2933 24.1206 17.0441 24.205C10.6291 26.3774 6.08651 28.7136 3.33634 31.3835C1.70006 32.972 0.631546 34.7405 0.245293 36.6981C-0.162407 38.7644 0.23513 40.8369 1.33218 42.7809C3.14144 45.9869 6.46814 48.5155 11.2075 50.5184C13.1105 51.3226 15.2636 52.0509 17.6692 52.7059C17.5595 52.9592 17.4743 53.2282 17.4174 53.5104C16.048 60.2958 15.7541 65.5001 16.6393 69.2792C17.1657 71.5268 18.1281 73.3603 19.5916 74.6832C21.1366 76.0798 23.09 76.7651 25.2849 76.7651C28.9057 76.7651 32.7121 75.0777 36.78 71.8722C38.4568 70.5508 40.1979 68.9552 42.0067 67.0845C42.1928 67.382 42.4213 67.6585 42.6916 67.9047C47.7477 72.5091 52.0045 75.3699 55.6454 76.4729C57.8103 77.1288 59.8428 77.1913 61.6937 76.5547C63.6475 75.8828 65.2042 74.4939 66.3025 72.5484C68.1152 69.3377 68.5932 65.1189 67.9174 59.9096C67.632 57.7095 67.1367 55.3059 66.4328 52.6947C66.7079 52.6662 66.9842 52.6068 67.2575 52.5142C73.6725 50.3418 78.2151 48.0056 80.9653 45.3357C82.6015 43.7472 83.6701 41.9787 84.0563 40.0211C84.464 37.9548 84.0665 35.8823 82.9694 33.9383C81.1602 30.7323 77.8335 28.2037 73.0941 26.2008C71.1345 25.3727 68.9095 24.625 66.4167 23.9549C66.5055 23.7327 66.5756 23.4991 66.6248 23.2556Z" fill="#002C4B"/>
<path fill-rule="evenodd" clip-rule="evenodd" d="M35.6852 24.4587H48.6188C49.4118 24.4587 50.1442 24.8927 50.5389 25.5963L57.0174 37.1463C57.409 37.8444 57.409 38.7025 57.0174 39.4006L50.5389 50.9506C50.1442 51.6542 49.4118 52.0882 48.6188 52.0882H35.6852C34.8922 52.0882 34.1597 51.6542 33.7651 50.9506L27.2865 39.4006C26.895 38.7025 26.895 37.8444 27.2865 37.1463L33.7651 25.5963C34.1597 24.8927 34.8922 24.4587 35.6852 24.4587ZM47.0158 27.3016C47.8092 27.3016 48.542 27.736 48.9365 28.4402L53.8145 37.1474C54.2052 37.8449 54.2052 38.702 53.8145 39.3995L48.9365 48.1066C48.542 48.8109 47.8092 49.2453 47.0158 49.2453H37.2881C36.4947 49.2453 35.7619 48.8109 35.3674 48.1066L30.4895 39.3995C30.0987 38.702 30.0987 37.8449 30.4895 37.1474L35.3674 28.4402C35.7619 27.736 36.4947 27.3016 37.2881 27.3016H47.0158ZM45.2859 30.4111H39.0181C38.2255 30.4111 37.4933 30.8446 37.0985 31.5476L33.955 37.1453C33.5628 37.8439 33.5628 38.703 33.955 39.4016L37.0985 44.9992C37.4933 45.7023 38.2255 46.1358 39.0181 46.1358H45.2859C46.0785 46.1358 46.8106 45.7023 47.2055 44.9992L50.3489 39.4016C50.7412 38.703 50.7412 37.8439 50.3489 37.1453L47.2055 31.5476C46.8106 30.8446 46.0785 30.4111 45.2859 30.4111ZM43.6205 33.3872C44.4125 33.3872 45.1442 33.8201 45.5392 34.5223L47.0139 37.1439C47.4073 37.8432 47.4073 38.7037 47.0139 39.403L45.5392 42.0246C45.1442 42.7268 44.4125 43.1597 43.6205 43.1597H40.6835C39.8915 43.1597 39.1598 42.7268 38.7647 42.0246L37.29 39.403C36.8966 38.7037 36.8966 37.8432 37.29 37.1439L38.7647 34.5223C39.1598 33.8201 39.8915 33.3872 40.6835 33.3872H43.6205ZM42.1525 36.319C41.4687 36.319 40.8378 36.6915 40.4963 37.2962C40.1548 37.9009 40.1548 38.646 40.4963 39.2507C40.8378 39.8554 41.4687 40.2279 42.1514 40.2279C42.8353 40.2279 43.4662 39.8554 43.8077 39.2507C44.1492 38.646 44.1492 37.9009 43.8077 37.2962C43.4662 36.6915 42.8353 36.319 42.1525 36.319ZM26.6543 38.2739H30.0935H26.6543Z" fill="#FFD94C"/>
<path fill-rule="evenodd" clip-rule="evenodd" d="M24.38 44.5503C24.9606 44.2108 25.6976 44.422 26.026 45.022L26.2362 45.4044C27.9203 48.457 29.6749 51.3546 31.4997 54.0971C33.6548 57.3358 36.0784 60.6145 38.7706 63.9332C39.1932 64.4541 39.1348 65.2286 38.6392 65.6756L38.3685 65.9186C29.4657 73.8762 23.6794 75.4657 21.0096 70.6871C18.3982 66.0129 19.3433 57.5158 23.8447 45.1958C23.9446 44.9225 24.134 44.6941 24.38 44.5503ZM62.3129 53.9188C62.9558 53.8027 63.5709 54.2362 63.6967 54.8939L63.7645 55.2527C65.9648 67.0332 64.4156 72.9235 59.1169 72.9235C53.9339 72.9235 47.3364 67.9 39.3242 57.8528C39.1465 57.63 39.0505 57.3502 39.0529 57.0622C39.0587 56.3824 39.6001 55.8362 40.2621 55.8421L40.6843 55.8452C44.0586 55.864 47.3389 55.7442 50.5251 55.4859C54.2878 55.1809 58.2171 54.6585 62.3129 53.9188ZM65.3567 28.9031C65.5884 28.2648 66.2863 27.9299 66.9266 28.1499L67.2755 28.2706C78.7169 32.2575 83.0642 36.6392 80.3173 41.4155C77.6305 46.0874 69.8177 49.4885 56.8791 51.6189C56.5922 51.6661 56.2978 51.6108 56.0472 51.4627C55.4558 51.1129 55.2588 50.3481 55.6072 49.7544L55.8288 49.3754C57.5944 46.3433 59.1902 43.3258 60.6161 40.3228C62.3 36.7765 63.8802 32.9699 65.3567 28.9031ZM27.4253 25.3812C27.7123 25.3339 28.0067 25.3892 28.2572 25.5374C28.8486 25.8871 29.0457 26.6519 28.6973 27.2456L28.4757 27.6247C26.71 30.6567 25.1143 33.6743 23.6884 36.6772C22.0045 40.2235 20.4243 44.0301 18.9478 48.0969C18.7161 48.7353 18.0182 49.0701 17.3778 48.8502L17.029 48.7295C5.58754 44.7425 1.24027 40.3608 3.98716 35.5845C6.67401 30.9126 14.4867 27.5115 27.4253 25.3812ZM45.936 11.0814C54.8388 3.1238 60.6251 1.53432 63.2948 6.31295C65.9062 10.9871 64.9612 19.4842 60.4597 31.8042C60.3599 32.0775 60.1705 32.3059 59.9245 32.4497C59.3439 32.7892 58.6069 32.578 58.2784 31.978L58.0683 31.5956C56.3841 28.543 54.6296 25.6455 52.8047 22.9029C50.6497 19.6643 48.2261 16.3856 45.5338 13.0669C45.1112 12.546 45.1697 11.7714 45.6652 11.3245L45.936 11.0814ZM25.6303 3.62354C30.8133 3.62354 37.4108 8.6471 45.423 18.6942C45.6007 18.9171 45.6967 19.1968 45.6943 19.4849C45.6885 20.1646 45.1471 20.7109 44.4852 20.705L44.0629 20.7019C40.6886 20.6831 37.4083 20.8029 34.2221 21.0612C30.4594 21.3662 26.5301 21.8886 22.4343 22.6283C21.7915 22.7444 21.1763 22.3109 21.0505 21.6532L20.9827 21.2944C18.7824 9.51383 20.3316 3.62354 25.6303 3.62354Z" fill="#FF4154"/>
</svg>
