<svg width="61" height="72" viewBox="0 0 61 72" fill="none" xmlns="http://www.w3.org/2000/svg">
<path d="M57.6731 28.0618H30.4663V1.18721C30.4661 0.936555 30.3891 0.692376 30.2464 0.489609C30.1037 0.286842 29.9024 0.135876 29.6716 0.0583121C29.4407 -0.0192524 29.1919 -0.0194414 28.9609 0.0577719C28.7299 0.134985 28.5285 0.285644 28.3855 0.488194L1.99531 37.272L0.829966 38.9581C0.496771 39.4225 0.295064 39.9733 0.247335 40.5491C0.199605 41.1249 0.307728 41.7031 0.559649 42.2192C0.81157 42.7353 1.19739 43.169 1.67409 43.472C2.15079 43.775 2.69965 43.9353 3.25946 43.9352H30.4663V70.8128C30.4664 71.0634 30.5434 71.3076 30.6861 71.5104C30.8289 71.7132 31.0301 71.8641 31.261 71.9417C31.4918 72.0192 31.7406 72.0194 31.9716 71.9422C32.2026 71.865 32.404 71.7143 32.547 71.5118L58.9372 34.728L60.1025 33.0419C60.4366 32.5775 60.639 32.0264 60.6871 31.4501C60.7353 30.8739 60.6274 30.2951 60.3753 29.7785C60.1233 29.2619 59.7372 28.8278 59.26 28.5246C58.7828 28.2215 58.2334 28.0613 57.6731 28.0618Z" fill="#24B47E"/>
</svg>
